<?xml version="1.0" encoding="iso-8859-1"?>
<!-- Uploaded to: SVG Repo, www.svgrepo.com, Generator: SVG Repo Mixer Tools -->
<svg fill="#74db74" version="1.1" id="Layer_1" xmlns="http://www.w3.org/2000/svg" xmlns:xlink="http://www.w3.org/1999/xlink" 
	 viewBox="0 0 512 512" xml:space="preserve">
<g>
	<g>
		<path d="M415.289,136.533c-15.684,0-28.444-12.76-28.444-28.444V91.022h-29.622c4.378-8.541,6.867-18.204,6.867-28.444
			C364.089,28.072,336.016,0,301.511,0C283.591,0,267.419,7.583,256,19.695C244.581,7.583,228.409,0,210.489,0
			c-34.505,0-62.578,28.072-62.578,62.578c0,10.24,2.488,19.903,6.866,28.444h-29.622v17.067c0,15.684-12.76,28.444-28.444,28.444
			H79.644v329.956h17.067c15.684,0,28.444,12.76,28.444,28.444V512h261.689v-17.067c0-15.684,12.76-28.444,28.444-28.444h17.067
			V136.533H415.289z M273.067,62.578c0-15.684,12.76-28.444,28.444-28.444s28.444,12.76,28.444,28.444s-12.76,28.444-28.444,28.444
			h-28.444V62.578z M210.489,34.133c15.684,0,28.444,12.76,28.444,28.444v28.444h-28.444c-15.684,0-28.444-12.76-28.444-28.444
			S194.805,34.133,210.489,34.133z M398.222,434.721c-20.811,5.905-37.24,22.335-43.146,43.146H156.923
			c-5.906-20.811-22.335-37.24-43.146-43.146v-266.42c20.811-5.905,37.24-22.335,43.146-43.146h53.565h28.444v39.822h34.133v-39.822
			h28.444h53.565c5.905,20.811,22.335,37.239,43.146,43.146V434.721z"/>
	</g>
</g>
<g>
	<g>
		<rect x="164.978" y="398.222" width="182.044" height="34.133"/>
	</g>
</g>
<g>
	<g>
		<path d="M329.524,212.408c-19.897-19.899-49.986-23.381-72.859-10.256c-9.178-5.528-19.649-8.561-30.533-8.723
			c-16.179-0.256-31.291,5.854-42.597,17.161c-23.202,23.202-22.794,61.36,0.908,85.063l73.904,73.904l72.086-72.086
			C353.635,274.269,353.227,236.111,329.524,212.408z M306.298,273.334l-47.952,47.952l-49.768-49.769
			c-10.394-10.395-10.801-26.898-0.909-36.791c4.633-4.632,10.853-7.17,17.556-7.17c0.132,0,0.264,0.001,0.397,0.003
			c7.045,0.105,13.735,2.973,18.838,8.076l12.067,12.067l12.068-12.066c9.893-9.893,26.398-9.485,36.792,0.908
			C315.782,246.938,316.19,263.441,306.298,273.334z"/>
	</g>
</g>
</svg>